#!OML:ASF F:\VICON\USERDATA\INSTALL\rory3\rory3.ASF
:FULLY-SPECIFIED
:DEGREES
9
root 0.254355374416211 18.124347720958887 -22.624064617326063 0.046829106991022384 -1.1150827214141827 -5.891124655240484
lfemur -33.721991847439725 5.160975532192976 -14.985292044362431
ltibia 78.93654978328675
lfoot -5.575951539386631 -4.322350633698037
ltoes -7.877672651267217
rfemur -8.557867602392268 6.165573629641218 34.86232576363034
rtibia 40.95890263690737
rfoot -12.381742899180908 -8.215968567044202
rtoes 1.7955788488519806
lowerback 14.067904974520681 0.9933705344762122 5.10514508142586
upperback -0.5421558354527375 2.247173491985048 3.1268861167619497
thorax -8.262488183840265 0.9616725524344985 -0.4742389064539867
lowerneck -16.515171442783 -3.7206478563118455 -1.810248692111496
upperneck 17.940723275108905 -4.9005949248987 1.3816810077501875
head 8.476132928201926 -2.3723251906471203 0.1916828302245315
lclavicle -2.2630160965727592e-15 6.838100466454676e-16
lhumerus -46.75135181383126 -8.858929084598998 93.23102707816213
lradius 69.79392231613105
lwrist 20.82863733581333
lhand -25.38895095688131 10.426789797463323
lfingers 7.125019999999999
lthumb 1.135876824093482 40.408290746890394
rclavicle -2.2630160965727592e-15 6.838100466454676e-16
rhumerus -35.901632512560624 0.6560404614778363 -89.3749575798907
rradius 70.02507090956284
rwrist -5.144551003084771
rhand -19.226965631900164 30.568584118781363
rfingers 7.125019999999999
rthumb 7.085918933889859 0.7459364114923811
10
root 0.2724031611151876 17.946632163281205 -21.769628193359942 0.7380087594028641 -1.6636266632770025 -6.577925200347858
lfemur -36.85571140873955 4.178790410518603 -13.961713650054614
ltibia 67.01446647951038
lfoot -6.626996466388576 -0.3392081637145923
ltoes -2.078461398003383
rfemur -4.9701631061938 5.72944877580405 35.70942640352355
rtibia 40.28148925257685
rfoot -14.65418601906164 -7.575946659305194
rtoes 5.438608447280872
lowerback 14.283379624237098 1.31905521804222 6.222238991629715
upperback 0.0022801360154428574 2.824646294378577 2.9999050838020276
thorax -7.805097054024568 1.2100893325496163 -1.4480018264408836
lowerneck -19.214636169144473 -3.8874908387744025 -1.698935774591456
upperneck 17.9549033541377 -5.051275854550195 1.2250254605930677
head 8.784537439831226 -2.4415790431794857 0.07853664328182197
lclavicle -2.2630161363447457e-15 6.838100502997916e-16
lhumerus -46.75940472630453 -8.39699129816555 93.08735382413181
lradius 68.66454676814467
lwrist 19.91232146723056
lhand -25.99332627295844 12.879763879455943
lfingers 7.125019999999999
lthumb 0.5521407904618514 42.85672172491636
rclavicle -2.2630161363447457e-15 6.838100502997916e-16
rhumerus -31.751523936761664 3.1732432793386156 -90.84049378174701
rradius 73.0257368706819
rwrist -7.186641980456001
rhand -19.72258113909437 31.103809205014493
rfingers 7.125019999999999
rthumb 6.607615963851837 1.267774347783881
11
root 0.29484750955116346 17.828895619487223 -20.88239887037578 1.9244484709822478 -2.1465835604852357 -7.379541752871493
lfemur -38.05554504863521 2.034452072718788 -12.265611257868667
ltibia 51.64604258148694
lfoot -8.836786460880049 3.2886757657545957
ltoes -8.130389066656322
rfemur -0.736080798361785 5.940482955894737 36.70205342620353
rtibia 37.27174726706856
rfoot -15.723820982471377 -7.933461717469465
rtoes 4.376380690326981
lowerback 13.147555184899481 1.4946935906411876 7.203925364222408
upperback -0.548510154288516 3.1530159049316797 3.1613388181316457
thorax -7.6556909200496595 1.3369914266222667 -1.9712946178152195
lowerneck -17.50074648344194 -3.6153614743806965 -1.8136859957279574
upperneck 17.264713106350467 -4.566873069055985 1.0941708729768544
head 8.406208845056938 -2.263628382338889 0.11155802806287662
lclavicle -2.263016141112468e-15 6.838100290383204e-16
lhumerus -49.27227920010118 -6.176122216208683 92.26441362528251
lradius 67.55881207216096
lwrist 19.27069887635527
lhand -25.918798479376807 12.505140065769814
lfingers 7.125019999999999
lthumb 0.6240986434247214 42.4828422423165
rclavicle -2.263016141112468e-15 6.838100290383204e-16
rhumerus -30.043952285535532 5.417078833439683 -91.42480390965773
rradius 74.62698730873025
rwrist -8.112535631627752
rhand -19.797103873941097 31.82502564825687
rfingers 7.125019999999999
rthumb 6.53562013625671 1.9828203179497614
12
root 0.32901382811680296 17.630076350226485 -19.965091412931322 2.9906589500157326 -3.9290247224640913 -8.090573627909654
lfemur -36.42982905563244 -0.7163084423397279 -9.803890850910818
ltibia 33.82193063720875
lfoot -6.212769109309203 6.43663830495959
ltoes -1.5908324415803952
rfemur 3.877766379023143 6.524473760051597 37.35502523262866
rtibia 34.53678499018875
rfoot -16.983665244932553 -7.244755639635259
rtoes -0.4555245609980103
lowerback 12.765496132253794 2.2015918162726122 8.097326761198893
upperback -0.8663057051450365 4.213671404891867 3.021044856991532
thorax -7.53743127210974 1.8013971365359516 -2.8549038596859857
lowerneck -17.289648161838116 -3.7555673838084287 -1.609363240890037
upperneck 17.163627469473887 -4.9335099448264295 1.180120035654482
head 8.353789258757656 -2.391284223570326 0.0804822601674034
lclavicle -2.2630160221077154e-15 6.838100208990125e-16
lhumerus -50.848488316802175 -4.770931679859982 91.1925558619873
lradius 66.26320217306358
lwrist 18.803270548624802
lhand -25.86000113387953 9.037023095015286
lfingers 7.125019999999999
lthumb 0.6808970132371444 39.02084671101025
rclavicle -2.2630160221077154e-15 6.838100208990125e-16
rhumerus -27.88739640558341 6.4683497828880006 -92.17446736484737
rradius 75.58273023813564
rwrist -8.250472506859252
rhand -21.219177515320947 30.602499205430288
rfingers 7.125019999999999
rthumb 5.162771221907633 0.743287529825474
13
root 0.3843894052645475 17.527223482220883 -19.000470287941646 4.0985539755208 -5.14745597398621 -8.56698479430076
lfemur -33.6087283962662 -8.551942826363131 -6.06888678354923
ltibia 17.772109091192725
lfoot -3.5462124836219857 10.400446816817965
ltoes -10.532385040207572
rfemur 8.791467408806167 6.316631317365013 37.517525595938885
rtibia 30.92938740508369
rfoot -16.073205123863623 -6.886325840641788
rtoes -5.4380326580378355
lowerback 11.702569826168535 2.64019515795649 8.856488744447848
upperback -1.1895896888348545 4.8357155894513095 2.863335374628904
thorax -7.140067001877702 2.0763340764721114 -3.5630457011417107
lowerneck -18.17733952156254 -3.286470638370848 -1.3747463762821919
upperneck 17.597172507065398 -4.446310616892043 1.1734049222868697
head 8.559148863382942 -2.067430322288405 0.04882703810502337
lclavicle -2.263016195558229e-15 6.838100157498386e-16
lhumerus -52.67098545683828 -3.1409547015068413 90.16622366566367
lradius 65.10360213137436
lwrist 18.509619218118843
lhand -25.95927560850196 8.854937604215035
lfingers 7.125019999999999
lthumb 0.5850916540525847 38.83889120469454
rclavicle -2.263016195558229e-15 6.838100157498386e-16
rhumerus -26.530388559646504 6.481258902920936 -92.57890940645105
rradius 75.18213811022909
rwrist -7.5059507889415205
rhand -18.26418119239087 33.28687434004468
rfingers 7.125019999999999
rthumb 8.015267652278895 3.466807869621132
14
root 0.4647226026018504 17.412152655633907 -17.976838754407154 4.898260409011886 -5.858940653947787 -8.289805608985219
lfemur -32.15828015173771 -7.074307387625268 -6.911098200809938
ltibia 12.882398974263033
lfoot -3.8163425862652334 9.128821683692777
ltoes -7.649905219600626
rfemur 11.868189223672989 6.822586493240324 36.69954936242479
rtibia 31.67874206834456
rfoot -15.813775102248739 -4.870743913899056
rtoes -8.086862512651823
lowerback 10.356356107830218 2.82916309419209 8.758167781858468
upperback -1.6107508621108533 4.999946369965885 2.750530300236648
thorax -6.843197140472331 2.158369663609926 -3.581775035872181
lowerneck -17.850162340692858 -3.165559953424944 -1.6316486828833485
upperneck 17.887091707832173 -4.093123846649952 1.1146371244212756
head 8.601188850271425 -1.9561412822842785 0.10326170363985232
lclavicle -2.263016081217771e-15 6.8381006857143e-16
lhumerus -54.58055459412822 -0.8061586624954398 89.08927775500088
lradius 63.329937835522536
lwrist 17.262814597602553
lhand -25.50568238234349 9.746139257070581
lfingers 7.125019999999999
lthumb 1.0231776538328745 39.728916395397626
rclavicle -2.263016081217771e-15 6.8381006857143e-16
rhumerus -26.42384672591946 6.214469250324583 -92.6012045697378
rradius 74.34192872333442
rwrist -6.711529175583779
rhand -18.339905773123967 33.35887100026157
rfingers 7.125019999999999
rthumb 7.942149955110532 3.5365716510093073
